<svg width="15" height="15" viewBox="0 0 18 18" fill="none" xmlns="http://www.w3.org/2000/svg">
  <path
    d="M9.00002 0.666687C4.40835 0.666687 0.666687 4.40835 0.666687 9.00002C0.666687 13.5917 4.40835 17.3334 9.00002 17.3334C13.5917 17.3334 17.3334 13.5917 17.3334 9.00002C17.3334 4.40835 13.5917 0.666687 9.00002 0.666687ZM8.37502 5.66669C8.37502 5.32502 8.65835 5.04169 9.00002 5.04169C9.34169 5.04169 9.62502 5.32502 9.62502 5.66669V9.83335C9.62502 10.175 9.34169 10.4584 9.00002 10.4584C8.65835 10.4584 8.37502 10.175 8.37502 9.83335V5.66669ZM9.76669 12.65C9.72502 12.7584 9.66669 12.8417 9.59169 12.925C9.50835 13 9.41669 13.0584 9.31669 13.1C9.21669 13.1417 9.10835 13.1667 9.00002 13.1667C8.89169 13.1667 8.78335 13.1417 8.68335 13.1C8.58335 13.0584 8.49169 13 8.40835 12.925C8.33335 12.8417 8.27502 12.7584 8.23335 12.65C8.19169 12.55 8.16669 12.4417 8.16669 12.3334C8.16669 12.225 8.19169 12.1167 8.23335 12.0167C8.27502 11.9167 8.33335 11.825 8.40835 11.7417C8.49169 11.6667 8.58335 11.6084 8.68335 11.5667C8.88335 11.4834 9.11669 11.4834 9.31669 11.5667C9.41669 11.6084 9.50835 11.6667 9.59169 11.7417C9.66669 11.825 9.72502 11.9167 9.76669 12.0167C9.80835 12.1167 9.83335 12.225 9.83335 12.3334C9.83335 12.4417 9.80835 12.55 9.76669 12.65Z"
    fill="#FFE164" />
</svg>