<svg width="149" height="40" viewBox="0 0 149 40" fill="none" xmlns="http://www.w3.org/2000/svg">
  <path
    d="M31.5248 37.5004H8.47556C5.17455 37.5004 2.5 34.8243 2.5 31.5248V8.47557C2.5 5.17455 5.17612 2.5 8.47556 2.5H31.5248C34.8259 2.5 37.5004 5.17612 37.5004 8.47557V31.5248C37.502 34.8259 34.8259 37.5004 31.5248 37.5004Z"
    fill="#16B0AC" />
  <path
    d="M29.0775 25.9058H18.8836C17.0779 25.9058 15.9535 24.034 16.8656 22.5447L21.9618 14.2303C22.8654 12.7566 25.0943 12.7566 25.9978 14.2303L31.0941 22.5447C32.0076 24.034 30.8831 25.9058 29.0775 25.9058Z"
    fill="white" />
  <path
    d="M22.1042 26.2502H12.2608C10.5164 26.2502 9.43192 24.4419 10.3126 23.0049L15.2336 14.9771C16.1058 13.5542 18.2592 13.5542 19.1299 14.9771L24.0509 23.0049C24.933 24.4433 23.8471 26.2502 22.1042 26.2502Z"
    fill="#D7EEEB" />
  <path
    d="M49.2642 17V2.45455H52.3395V8.45597H58.5824V2.45455H61.6506V17H58.5824V10.9915H52.3395V17H49.2642ZM71.125 12.3551V6.09091H74.1506V17H71.2457V15.0185H71.1321C70.8859 15.6577 70.4763 16.1714 69.9034 16.5597C69.3352 16.9479 68.6416 17.142 67.8224 17.142C67.0933 17.142 66.4517 16.9763 65.8977 16.6449C65.3438 16.3134 64.9105 15.8423 64.598 15.2315C64.2902 14.6207 64.134 13.8892 64.1293 13.0369V6.09091H67.1548V12.4972C67.1596 13.1411 67.3324 13.6501 67.6733 14.0241C68.0142 14.3982 68.4711 14.5852 69.044 14.5852C69.4086 14.5852 69.7495 14.5024 70.0668 14.3366C70.384 14.1662 70.6397 13.9152 70.8338 13.5838C71.0327 13.2524 71.1297 12.8428 71.125 12.3551ZM76.6275 17V2.45455H79.6531V7.9233H79.7454C79.878 7.62973 80.0697 7.33144 80.3207 7.02841C80.5763 6.72064 80.9078 6.46496 81.315 6.26136C81.7269 6.05303 82.2383 5.94886 82.8491 5.94886C83.6445 5.94886 84.3784 6.1572 85.0508 6.57386C85.7231 6.9858 86.2605 7.60843 86.663 8.44176C87.0655 9.27036 87.2667 10.3097 87.2667 11.5597C87.2667 12.7765 87.0702 13.804 86.6772 14.642C86.2889 15.4754 85.7586 16.1075 85.0863 16.5384C84.4187 16.9645 83.6706 17.1776 82.842 17.1776C82.2549 17.1776 81.7553 17.0805 81.3434 16.8864C80.9362 16.6922 80.6024 16.4484 80.342 16.1548C80.0816 15.8565 79.8827 15.5559 79.7454 15.2528H79.6104V17H76.6275ZM79.5891 11.5455C79.5891 12.1941 79.6791 12.7599 79.859 13.2429C80.0389 13.7259 80.2994 14.1023 80.6403 14.3722C80.9812 14.6373 81.3955 14.7699 81.8832 14.7699C82.3756 14.7699 82.7923 14.6349 83.1332 14.3651C83.4741 14.0904 83.7321 13.7116 83.9073 13.2287C84.0872 12.741 84.1772 12.1799 84.1772 11.5455C84.1772 10.9157 84.0896 10.3617 83.9144 9.88352C83.7392 9.4053 83.4812 9.03125 83.1403 8.76136C82.7994 8.49148 82.3803 8.35653 81.8832 8.35653C81.3907 8.35653 80.9741 8.48674 80.6332 8.74716C80.297 9.00758 80.0389 9.37689 79.859 9.85511C79.6791 10.3333 79.5891 10.8968 79.5891 11.5455Z"
    fill="#fdfdfd" />
  <path
    d="M89.2855 17V6.09091H92.169V8.01562H92.2969C92.5241 7.37642 92.9029 6.87216 93.4332 6.50284C93.9635 6.13352 94.598 5.94886 95.3366 5.94886C96.0848 5.94886 96.7216 6.13589 97.2472 6.50994C97.7727 6.87926 98.1231 7.38116 98.2983 8.01562H98.4119C98.6345 7.39062 99.0369 6.8911 99.6193 6.51705C100.206 6.13826 100.9 5.94886 101.7 5.94886C102.718 5.94886 103.545 6.2732 104.179 6.92188C104.818 7.56581 105.138 8.47964 105.138 9.66335V17H102.119V10.2599C102.119 9.65388 101.958 9.19934 101.636 8.89631C101.314 8.59328 100.912 8.44176 100.429 8.44176C99.8797 8.44176 99.4512 8.61695 99.1435 8.96733C98.8357 9.31297 98.6818 9.76989 98.6818 10.3381V17H95.7486V10.196C95.7486 9.66098 95.5947 9.23485 95.2869 8.91761C94.9839 8.60038 94.5838 8.44176 94.0866 8.44176C93.7505 8.44176 93.4474 8.52699 93.1776 8.69744C92.9124 8.86316 92.7017 9.09754 92.5455 9.40057C92.3892 9.69886 92.3111 10.0492 92.3111 10.4517V17H89.2855ZM107.528 17V6.09091H110.553V17H107.528ZM109.048 4.68466C108.598 4.68466 108.212 4.53551 107.89 4.23722C107.573 3.93419 107.414 3.57197 107.414 3.15057C107.414 2.7339 107.573 2.37642 107.89 2.07812C108.212 1.77509 108.598 1.62358 109.048 1.62358C109.497 1.62358 109.881 1.77509 110.198 2.07812C110.52 2.37642 110.681 2.7339 110.681 3.15057C110.681 3.57197 110.52 3.93419 110.198 4.23722C109.881 4.53551 109.497 4.68466 109.048 4.68466ZM116.002 10.6932V17H112.977V6.09091H115.86V8.01562H115.988C116.23 7.38116 116.635 6.87926 117.203 6.50994C117.771 6.13589 118.46 5.94886 119.27 5.94886C120.027 5.94886 120.688 6.11458 121.251 6.44602C121.815 6.77746 122.252 7.25095 122.565 7.86648C122.877 8.47727 123.034 9.20644 123.034 10.054V17H120.008V10.5938C120.013 9.92614 119.842 9.4053 119.497 9.03125C119.151 8.65246 118.675 8.46307 118.069 8.46307C117.662 8.46307 117.302 8.55066 116.99 8.72585C116.682 8.90104 116.44 9.15672 116.265 9.4929C116.095 9.82434 116.007 10.2244 116.002 10.6932ZM130.39 17.2131C129.268 17.2131 128.302 16.9858 127.492 16.5312C126.687 16.072 126.067 15.4233 125.631 14.5852C125.196 13.7424 124.978 12.7457 124.978 11.5952C124.978 10.473 125.196 9.48816 125.631 8.64062C126.067 7.79309 126.68 7.13258 127.471 6.65909C128.266 6.18561 129.199 5.94886 130.269 5.94886C130.989 5.94886 131.659 6.06487 132.279 6.29688C132.904 6.52415 133.449 6.86742 133.913 7.3267C134.381 7.78598 134.746 8.36364 135.006 9.05966C135.267 9.75095 135.397 10.5606 135.397 11.4886V12.3196H126.185V10.4446H132.549C132.549 10.009 132.454 9.62311 132.265 9.28693C132.076 8.95076 131.813 8.68797 131.477 8.49858C131.145 8.30445 130.759 8.20739 130.319 8.20739C129.86 8.20739 129.452 8.31392 129.097 8.52699C128.747 8.73532 128.472 9.01705 128.273 9.37216C128.075 9.72254 127.973 10.1132 127.968 10.544V12.3267C127.968 12.8665 128.067 13.3329 128.266 13.7259C128.47 14.1188 128.756 14.4219 129.126 14.6349C129.495 14.848 129.933 14.9545 130.44 14.9545C130.776 14.9545 131.084 14.9072 131.363 14.8125C131.642 14.7178 131.881 14.5758 132.08 14.3864C132.279 14.197 132.431 13.965 132.535 13.6903L135.333 13.875C135.191 14.5473 134.9 15.1345 134.46 15.6364C134.024 16.1335 133.46 16.5218 132.769 16.8011C132.083 17.0758 131.29 17.2131 130.39 17.2131Z"
    fill="#0DB1AC" />
  <path
    d="M54.8011 27.3636C54.7415 26.8598 54.4995 26.4688 54.0753 26.1903C53.651 25.9119 53.1307 25.7727 52.5142 25.7727C52.0634 25.7727 51.669 25.8456 51.331 25.9915C50.9962 26.1373 50.7344 26.3378 50.5455 26.593C50.3598 26.8482 50.267 27.1383 50.267 27.4631C50.267 27.7348 50.3317 27.9685 50.4609 28.1641C50.5935 28.3563 50.7625 28.517 50.968 28.6463C51.1735 28.7723 51.389 28.8767 51.6143 28.9595C51.8397 29.0391 52.0469 29.1037 52.2358 29.1534L53.2699 29.4318C53.535 29.5014 53.83 29.5975 54.1548 29.7202C54.483 29.8428 54.7962 30.0102 55.0945 30.2223C55.3961 30.4311 55.6446 30.6996 55.8402 31.0277C56.0357 31.3558 56.1335 31.7585 56.1335 32.2358C56.1335 32.786 55.9893 33.2831 55.701 33.7273C55.416 34.1714 54.9983 34.5244 54.4482 34.7862C53.9013 35.0481 53.2367 35.179 52.4545 35.179C51.7254 35.179 51.094 35.0613 50.5604 34.826C50.0301 34.5907 49.6125 34.2625 49.3075 33.8416C49.0059 33.4207 48.8352 32.9318 48.7955 32.375H50.0682C50.1013 32.7595 50.2306 33.0777 50.456 33.3295C50.6847 33.5781 50.973 33.7637 51.321 33.8864C51.6723 34.0057 52.0502 34.0653 52.4545 34.0653C52.9252 34.0653 53.3478 33.9891 53.7223 33.8366C54.0968 33.6809 54.3935 33.4654 54.6122 33.1903C54.831 32.9119 54.9403 32.5871 54.9403 32.2159C54.9403 31.8778 54.8459 31.6027 54.657 31.3906C54.468 31.1785 54.2195 31.0062 53.9112 30.8736C53.603 30.741 53.2699 30.625 52.9119 30.5256L51.6591 30.1676C50.8636 29.9389 50.2339 29.6125 49.7699 29.1882C49.3059 28.764 49.0739 28.2088 49.0739 27.5227C49.0739 26.9527 49.228 26.4555 49.5362 26.0312C49.8478 25.6037 50.2654 25.2723 50.7891 25.0369C51.3161 24.7983 51.9044 24.679 52.554 24.679C53.2102 24.679 53.7936 24.7966 54.304 25.032C54.8144 25.264 55.2188 25.5821 55.517 25.9865C55.8187 26.3909 55.9777 26.8499 55.9943 27.3636H54.8011ZM62.3141 31.8778V27.3636H63.4874V35H62.3141V33.7074H62.2346C62.0556 34.0952 61.7772 34.425 61.3993 34.6967C61.0215 34.9652 60.5442 35.0994 59.9675 35.0994C59.4902 35.0994 59.066 34.995 58.6948 34.7862C58.3236 34.5741 58.0319 34.2559 57.8198 33.8317C57.6077 33.4041 57.5016 32.8655 57.5016 32.2159V27.3636H58.6749V32.1364C58.6749 32.6932 58.8307 33.1373 59.1422 33.4688C59.4571 33.8002 59.8581 33.9659 60.3453 33.9659C60.637 33.9659 60.9337 33.8913 61.2353 33.7422C61.5402 33.593 61.7954 33.3643 62.0009 33.0561C62.2097 32.7479 62.3141 32.3551 62.3141 31.8778ZM65.1364 37.8636V27.3636H66.2699V28.5767H66.4091C66.4953 28.4441 66.6146 28.2751 66.767 28.0696C66.9228 27.8608 67.1449 27.6752 67.4332 27.5128C67.7249 27.3471 68.1193 27.2642 68.6165 27.2642C69.2595 27.2642 69.8262 27.425 70.3168 27.7464C70.8073 28.0679 71.1901 28.5237 71.4652 29.1136C71.7403 29.7036 71.8778 30.3996 71.8778 31.2017C71.8778 32.0104 71.7403 32.7114 71.4652 33.3047C71.1901 33.8946 70.8089 34.352 70.3217 34.6768C69.8345 34.9983 69.2727 35.1591 68.6364 35.1591C68.1458 35.1591 67.7531 35.0779 67.4581 34.9155C67.1631 34.7498 66.9361 34.5625 66.777 34.3537C66.6179 34.1416 66.4953 33.9659 66.4091 33.8267H66.3097V37.8636H65.1364ZM66.2898 31.1818C66.2898 31.7585 66.3743 32.2673 66.5433 32.7081C66.7124 33.1456 66.9593 33.4886 67.2841 33.7372C67.6089 33.9825 68.0066 34.1051 68.4773 34.1051C68.9678 34.1051 69.3771 33.9759 69.7053 33.7173C70.0367 33.4555 70.2853 33.1042 70.451 32.6634C70.62 32.2192 70.7045 31.7254 70.7045 31.1818C70.7045 30.6449 70.6217 30.161 70.456 29.7301C70.2936 29.2959 70.0466 28.9529 69.7152 28.701C69.3871 28.4458 68.9744 28.3182 68.4773 28.3182C68 28.3182 67.599 28.4392 67.2741 28.6811C66.9493 28.9197 66.7041 29.2545 66.5384 29.6854C66.3726 30.1129 66.2898 30.6117 66.2898 31.1818ZM73.1676 37.8636V27.3636H74.3011V28.5767H74.4403C74.5265 28.4441 74.6458 28.2751 74.7983 28.0696C74.9541 27.8608 75.1761 27.6752 75.4645 27.5128C75.7562 27.3471 76.1506 27.2642 76.6477 27.2642C77.2907 27.2642 77.8575 27.425 78.348 27.7464C78.8385 28.0679 79.2214 28.5237 79.4964 29.1136C79.7715 29.7036 79.9091 30.3996 79.9091 31.2017C79.9091 32.0104 79.7715 32.7114 79.4964 33.3047C79.2214 33.8946 78.8402 34.352 78.353 34.6768C77.8658 34.9983 77.304 35.1591 76.6676 35.1591C76.1771 35.1591 75.7843 35.0779 75.4893 34.9155C75.1944 34.7498 74.9673 34.5625 74.8082 34.3537C74.6491 34.1416 74.5265 33.9659 74.4403 33.8267H74.3409V37.8636H73.1676ZM74.321 31.1818C74.321 31.7585 74.4055 32.2673 74.5746 32.7081C74.7436 33.1456 74.9905 33.4886 75.3153 33.7372C75.6402 33.9825 76.0379 34.1051 76.5085 34.1051C76.9991 34.1051 77.4084 33.9759 77.7365 33.7173C78.0679 33.4555 78.3165 33.1042 78.4822 32.6634C78.6513 32.2192 78.7358 31.7254 78.7358 31.1818C78.7358 30.6449 78.6529 30.161 78.4872 29.7301C78.3248 29.2959 78.0779 28.9529 77.7464 28.701C77.4183 28.4458 77.0057 28.3182 76.5085 28.3182C76.0313 28.3182 75.6302 28.4392 75.3054 28.6811C74.9806 28.9197 74.7353 29.2545 74.5696 29.6854C74.4039 30.1129 74.321 30.6117 74.321 31.1818ZM82.3722 24.8182V35H81.1989V24.8182H82.3722ZM84.0211 35V27.3636H85.1944V35H84.0211ZM84.6177 26.0909C84.389 26.0909 84.1918 26.013 84.0261 25.8572C83.8637 25.7015 83.7825 25.5142 83.7825 25.2955C83.7825 25.0767 83.8637 24.8894 84.0261 24.7337C84.1918 24.5779 84.389 24.5 84.6177 24.5C84.8464 24.5 85.042 24.5779 85.2044 24.7337C85.3701 24.8894 85.4529 25.0767 85.4529 25.2955C85.4529 25.5142 85.3701 25.7015 85.2044 25.8572C85.042 26.013 84.8464 26.0909 84.6177 26.0909ZM90.0451 35.1591C89.3093 35.1591 88.6746 34.9967 88.141 34.6719C87.6107 34.3438 87.2013 33.8864 86.913 33.2997C86.628 32.7098 86.4854 32.0237 86.4854 31.2415C86.4854 30.4593 86.628 29.7699 86.913 29.1733C87.2013 28.5734 87.6024 28.1061 88.1161 27.7713C88.6332 27.4332 89.2364 27.2642 89.9258 27.2642C90.3235 27.2642 90.7163 27.3305 91.104 27.4631C91.4918 27.5956 91.8448 27.8111 92.163 28.1094C92.4812 28.4044 92.7347 28.7955 92.9237 29.2827C93.1126 29.7699 93.207 30.3698 93.207 31.0824V31.5795H87.3207V30.5653H92.0138C92.0138 30.1345 91.9277 29.75 91.7553 29.4119C91.5863 29.0739 91.3443 28.8071 91.0295 28.6115C90.7179 28.416 90.35 28.3182 89.9258 28.3182C89.4585 28.3182 89.0541 28.4342 88.7127 28.6662C88.3746 28.8949 88.1145 29.1932 87.9322 29.5611C87.7499 29.929 87.6587 30.3234 87.6587 30.7443V31.4205C87.6587 31.9972 87.7582 32.486 87.957 32.8871C88.1592 33.2848 88.4393 33.5881 88.7972 33.7969C89.1552 34.0024 89.5711 34.1051 90.0451 34.1051C90.3533 34.1051 90.6317 34.062 90.8803 33.9759C91.1322 33.8864 91.3493 33.7538 91.5316 33.5781C91.7139 33.3991 91.8548 33.1771 91.9542 32.9119L93.0877 33.2301C92.9684 33.6146 92.7679 33.9527 92.4862 34.2443C92.2044 34.5327 91.8564 34.758 91.4421 34.9205C91.0278 35.0795 90.5621 35.1591 90.0451 35.1591ZM94.4918 35V27.3636H95.6254V28.517H95.7049C95.8441 28.1392 96.096 27.8326 96.4606 27.5973C96.8252 27.362 97.2362 27.2443 97.6935 27.2443C97.7797 27.2443 97.8874 27.246 98.0167 27.2493C98.146 27.2526 98.2437 27.2576 98.31 27.2642V28.4574C98.2702 28.4474 98.1791 28.4325 98.0366 28.4126C97.8974 28.3894 97.7499 28.3778 97.5941 28.3778C97.2229 28.3778 96.8915 28.4557 96.5998 28.6115C96.3114 28.764 96.0827 28.9761 95.9137 29.2479C95.748 29.5163 95.6651 29.8229 95.6651 30.1676V35H94.4918ZM108.366 27.3636C108.306 26.8598 108.064 26.4688 107.64 26.1903C107.215 25.9119 106.695 25.7727 106.079 25.7727C105.628 25.7727 105.233 25.8456 104.895 25.9915C104.561 26.1373 104.299 26.3378 104.11 26.593C103.924 26.8482 103.831 27.1383 103.831 27.4631C103.831 27.7348 103.896 27.9685 104.025 28.1641C104.158 28.3563 104.327 28.517 104.532 28.6463C104.738 28.7723 104.953 28.8767 105.179 28.9595C105.404 29.0391 105.611 29.1037 105.8 29.1534L106.834 29.4318C107.099 29.5014 107.394 29.5975 107.719 29.7202C108.047 29.8428 108.361 30.0102 108.659 30.2223C108.961 30.4311 109.209 30.6996 109.405 31.0277C109.6 31.3558 109.698 31.7585 109.698 32.2358C109.698 32.786 109.554 33.2831 109.265 33.7273C108.98 34.1714 108.563 34.5244 108.013 34.7862C107.466 35.0481 106.801 35.179 106.019 35.179C105.29 35.179 104.658 35.0613 104.125 34.826C103.595 34.5907 103.177 34.2625 102.872 33.8416C102.57 33.4207 102.4 32.9318 102.36 32.375H103.633C103.666 32.7595 103.795 33.0777 104.02 33.3295C104.249 33.5781 104.537 33.7637 104.885 33.8864C105.237 34.0057 105.615 34.0653 106.019 34.0653C106.49 34.0653 106.912 33.9891 107.287 33.8366C107.661 33.6809 107.958 33.4654 108.177 33.1903C108.395 32.9119 108.505 32.5871 108.505 32.2159C108.505 31.8778 108.41 31.6027 108.221 31.3906C108.032 31.1785 107.784 31.0062 107.476 30.8736C107.167 30.741 106.834 30.625 106.476 30.5256L105.224 30.1676C104.428 29.9389 103.798 29.6125 103.334 29.1882C102.87 28.764 102.638 28.2088 102.638 27.5227C102.638 26.9527 102.792 26.4555 103.101 26.0312C103.412 25.6037 103.83 25.2723 104.354 25.0369C104.881 24.7983 105.469 24.679 106.118 24.679C106.775 24.679 107.358 24.7966 107.868 25.032C108.379 25.264 108.783 25.5821 109.081 25.9865C109.383 26.3909 109.542 26.8499 109.559 27.3636H108.366ZM111.822 37.8636C111.623 37.8636 111.446 37.8471 111.29 37.8139C111.134 37.7841 111.026 37.7543 110.967 37.7244L111.265 36.6903C111.55 36.7633 111.802 36.7898 112.021 36.7699C112.239 36.75 112.433 36.6522 112.602 36.4766C112.775 36.3042 112.932 36.0241 113.075 35.6364L113.293 35.0398L110.469 27.3636H111.742L113.85 33.4489H113.93L116.038 27.3636H117.31L114.069 36.1136C113.923 36.508 113.742 36.8345 113.527 37.093C113.312 37.3549 113.061 37.5488 112.776 37.6747C112.495 37.8007 112.176 37.8636 111.822 37.8636ZM123.768 29.0739L122.714 29.3722C122.648 29.1965 122.55 29.0258 122.421 28.8601C122.295 28.6911 122.123 28.5518 121.904 28.4425C121.685 28.3331 121.405 28.2784 121.064 28.2784C120.596 28.2784 120.207 28.3861 119.895 28.6016C119.587 28.8137 119.433 29.0838 119.433 29.4119C119.433 29.7036 119.539 29.9339 119.751 30.103C119.963 30.272 120.295 30.4129 120.745 30.5256L121.879 30.804C122.562 30.9697 123.07 31.2232 123.405 31.5646C123.74 31.9027 123.907 32.3385 123.907 32.8722C123.907 33.3097 123.781 33.7008 123.529 34.0455C123.281 34.3902 122.933 34.6619 122.485 34.8608C122.038 35.0597 121.518 35.1591 120.924 35.1591C120.145 35.1591 119.501 34.9901 118.99 34.652C118.48 34.3139 118.157 33.8201 118.021 33.1705L119.135 32.892C119.241 33.303 119.441 33.6113 119.736 33.8168C120.034 34.0223 120.424 34.125 120.904 34.125C121.451 34.125 121.886 34.009 122.207 33.777C122.532 33.5417 122.694 33.2599 122.694 32.9318C122.694 32.6667 122.601 32.4446 122.416 32.2656C122.23 32.0833 121.945 31.9474 121.561 31.858L120.288 31.5597C119.589 31.3939 119.075 31.1371 118.747 30.7891C118.422 30.4377 118.26 29.9986 118.26 29.4716C118.26 29.0407 118.381 28.6596 118.623 28.3281C118.868 27.9967 119.201 27.7365 119.622 27.5476C120.046 27.3587 120.527 27.2642 121.064 27.2642C121.819 27.2642 122.413 27.4299 122.843 27.7614C123.278 28.0928 123.586 28.5303 123.768 29.0739ZM128.494 27.3636V28.358H124.537V27.3636H128.494ZM125.691 25.5341H126.864V32.8125C126.864 33.1439 126.912 33.3925 127.008 33.5582C127.107 33.7206 127.233 33.83 127.386 33.8864C127.542 33.9394 127.706 33.9659 127.878 33.9659C128.007 33.9659 128.113 33.9593 128.196 33.946C128.279 33.9295 128.345 33.9162 128.395 33.9062L128.634 34.9602C128.554 34.9901 128.443 35.0199 128.301 35.0497C128.158 35.0829 127.977 35.0994 127.759 35.0994C127.427 35.0994 127.102 35.0282 126.784 34.8857C126.469 34.7431 126.208 34.526 125.999 34.2344C125.793 33.9427 125.691 33.5748 125.691 33.1307V25.5341ZM132.879 35.1591C132.143 35.1591 131.509 34.9967 130.975 34.6719C130.445 34.3438 130.035 33.8864 129.747 33.2997C129.462 32.7098 129.319 32.0237 129.319 31.2415C129.319 30.4593 129.462 29.7699 129.747 29.1733C130.035 28.5734 130.436 28.1061 130.95 27.7713C131.467 27.4332 132.07 27.2642 132.76 27.2642C133.157 27.2642 133.55 27.3305 133.938 27.4631C134.326 27.5956 134.679 27.8111 134.997 28.1094C135.315 28.4044 135.569 28.7955 135.758 29.2827C135.947 29.7699 136.041 30.3698 136.041 31.0824V31.5795H130.155V30.5653H134.848C134.848 30.1345 134.762 29.75 134.589 29.4119C134.42 29.0739 134.178 28.8071 133.863 28.6115C133.552 28.416 133.184 28.3182 132.76 28.3182C132.292 28.3182 131.888 28.4342 131.547 28.6662C131.209 28.8949 130.948 29.1932 130.766 29.5611C130.584 29.929 130.493 30.3234 130.493 30.7443V31.4205C130.493 31.9972 130.592 32.486 130.791 32.8871C130.993 33.2848 131.273 33.5881 131.631 33.7969C131.989 34.0024 132.405 34.1051 132.879 34.1051C133.187 34.1051 133.466 34.062 133.714 33.9759C133.966 33.8864 134.183 33.7538 134.366 33.5781C134.548 33.3991 134.689 33.1771 134.788 32.9119L135.922 33.2301C135.802 33.6146 135.602 33.9527 135.32 34.2443C135.038 34.5327 134.69 34.758 134.276 34.9205C133.862 35.0795 133.396 35.1591 132.879 35.1591ZM137.326 35V27.3636H138.459V28.5568H138.559C138.718 28.1491 138.975 27.8326 139.329 27.6072C139.684 27.3786 140.11 27.2642 140.607 27.2642C141.111 27.2642 141.53 27.3786 141.865 27.6072C142.203 27.8326 142.466 28.1491 142.655 28.5568H142.735C142.93 28.1624 143.224 27.8492 143.615 27.6172C144.006 27.3819 144.475 27.2642 145.022 27.2642C145.705 27.2642 146.263 27.478 146.697 27.9055C147.131 28.3298 147.349 28.991 147.349 29.8892V35H146.175V29.8892C146.175 29.3258 146.021 28.9231 145.713 28.6811C145.405 28.4392 145.042 28.3182 144.624 28.3182C144.087 28.3182 143.671 28.4806 143.376 28.8054C143.081 29.1269 142.934 29.5346 142.934 30.0284V35H141.741V29.7699C141.741 29.3357 141.6 28.986 141.318 28.7209C141.036 28.4524 140.673 28.3182 140.229 28.3182C139.924 28.3182 139.639 28.3994 139.374 28.5618C139.112 28.7242 138.9 28.9496 138.738 29.2379C138.579 29.523 138.499 29.8527 138.499 30.2273V35H137.326Z"
    fill="#6D7688" />
</svg>