<svg width="96" height="96" viewBox="0 0 96 96" fill="none" xmlns="http://www.w3.org/2000/svg">
<rect width="96" height="96" rx="48" fill="#F0F1F3"/>
<path d="M48 45.1241L66 35.1241L48.972 25.6641C48.6747 25.4987 48.3402 25.412 48 25.412C47.6598 25.412 47.3253 25.4987 47.028 25.6641L30 35.1241L48 45.1241Z" fill="#BBC0C9"/>
<path d="M46 48.5881L28 38.5881V59.4121C28 59.7687 28.0953 60.1187 28.276 60.4261C28.4568 60.7334 28.7164 60.9869 29.028 61.1601L46 70.5881V48.5881Z" fill="#2D3139"/>
<path d="M50 48.5881V70.5881L66.972 61.1601C67.2836 60.9868 67.5432 60.7334 67.724 60.426C67.9047 60.1187 68 59.7686 68 59.4121V38.5901L50 48.5881Z" fill="#6D7688"/>
</svg>
