<svg width="24" height="24" viewBox="0 0 24 24" fill="none" xmlns="http://www.w3.org/2000/svg">
<path fill-rule="evenodd" clip-rule="evenodd" d="M21.1667 5.58333C21.1667 6.59625 20.3463 7.41667 19.3334 7.41667C18.3204 7.41667 17.5 6.59625 17.5 5.58333C17.5 4.57042 18.3204 3.75 19.3334 3.75C20.3463 3.75 21.1667 4.57042 21.1667 5.58333ZM21.1667 20.25V18.4167L21.1667 15.6667H23V10.1667C23 9.15375 22.1796 8.33333 21.1667 8.33333H20.2739H18.3929H17.5C16.4871 8.33333 15.6667 9.15375 15.6667 10.1667V15.6667H17.5V20.25C17.5 20.756 17.9107 21.1667 18.4167 21.1667H20.25C20.756 21.1667 21.1667 20.756 21.1667 20.25Z" fill="#494F5B"/>
<path fill-rule="evenodd" clip-rule="evenodd" d="M6.5 5.58333C6.5 6.59625 5.67958 7.41667 4.66667 7.41667C3.65375 7.41667 2.83333 6.59625 2.83333 5.58333C2.83333 4.57042 3.65375 3.75 4.66667 3.75C5.67958 3.75 6.5 4.57042 6.5 5.58333ZM2.83333 15.6667L2.83333 18.4167L2.83333 20.25C2.83333 20.756 3.244 21.1667 3.75 21.1667H5.58333C6.08933 21.1667 6.5 20.756 6.5 20.25V18.4167V15.6667H8.33333V10.1667C8.33333 9.15375 7.51292 8.33333 6.5 8.33333H5.60717H3.72617H2.83333C1.82042 8.33333 1 9.15375 1 10.1667V15.6667H2.83333Z" fill="#494F5B"/>
<path fill-rule="evenodd" clip-rule="evenodd" d="M9.25 3.75C9.25 5.26892 10.4811 6.5 12 6.5C13.5189 6.5 14.75 5.26892 14.75 3.75C14.75 2.23108 13.5189 1 12 1C10.4811 1 9.25 2.23108 9.25 3.75ZM9.25 22.0833C9.25 22.5893 9.66067 23 10.1667 23H13.8333C14.3393 23 14.75 22.5893 14.75 22.0833V16.5833H17.5V11.0833C17.5 9.56442 16.2689 8.33333 14.75 8.33333H9.25C7.73108 8.33333 6.5 9.56442 6.5 11.0833V16.5833H9.25V22.0833Z" fill="#BBC0C9"/>
</svg>
