<svg width="24" height="24" viewBox="0 0 24 24" fill="none" xmlns="http://www.w3.org/2000/svg">
<path d="M19.0201 5.47381C17.0801 3.53381 15.1801 3.48381 13.1901 5.47381L11.9801 6.68381C11.8801 6.78381 11.8401 6.94381 11.8801 7.08381C12.6401 9.73381 14.7601 11.8538 17.4101 12.6138C17.4501 12.6238 17.4901 12.6338 17.5301 12.6338C17.6401 12.6338 17.7401 12.5938 17.8201 12.5138L19.0201 11.3038C20.0101 10.3238 20.4901 9.37381 20.4901 8.41381C20.5001 7.42381 20.0201 6.46381 19.0201 5.47381Z" fill="#292D32"/>
<path d="M15.6101 13.5239C15.3201 13.3839 15.0401 13.2439 14.7701 13.0839C14.5501 12.9539 14.3401 12.8139 14.1301 12.6639C13.9601 12.5539 13.7601 12.3939 13.5701 12.2339C13.5501 12.2239 13.4801 12.1639 13.4001 12.0839C13.0701 11.8039 12.7001 11.4439 12.3701 11.0439C12.3401 11.0239 12.2901 10.9539 12.2201 10.8639C12.1201 10.7439 11.9501 10.5439 11.8001 10.3139C11.6801 10.1639 11.5401 9.94395 11.4101 9.72395C11.2501 9.45395 11.1101 9.18394 10.9701 8.90394C10.9489 8.85855 10.9284 8.81338 10.9085 8.76848C10.7609 8.43516 10.3263 8.33772 10.0685 8.59547L4.34007 14.3239C4.21007 14.4539 4.09007 14.7039 4.06007 14.8739L3.52007 18.7039C3.42007 19.3839 3.61007 20.0239 4.03007 20.4539C4.39007 20.8039 4.89007 20.9939 5.43007 20.9939C5.55007 20.9939 5.67007 20.9839 5.79007 20.9639L9.63007 20.4239C9.81007 20.3939 10.0601 20.2739 10.1801 20.1439L15.9014 14.4226C16.1609 14.1631 16.063 13.7176 15.7254 13.5736C15.6874 13.5573 15.649 13.5408 15.6101 13.5239Z" fill="#292D32"/>
</svg>
