<svg width="32" height="32" viewBox="0 0 32 32" fill="none" xmlns="http://www.w3.org/2000/svg">
<path d="M22.4 12H17V20.3333C17 20.88 16.5466 21.3333 16 21.3333C15.4533 21.3333 15 20.88 15 20.3333V12H9.59996C5.33329 12 2.66663 14.6667 2.66663 18.9333V22.3867C2.66663 26.6667 5.33329 29.3333 9.59996 29.3333H22.3866C26.6533 29.3333 29.32 26.6667 29.32 22.4V18.9333C29.3333 14.6667 26.6666 12 22.4 12Z" fill="#99A0AD"/>
<path d="M17 6.07992L19.76 8.83992C19.96 9.03992 20.2133 9.13326 20.4666 9.13326C20.72 9.13326 20.9733 9.03992 21.1733 8.83992C21.56 8.45326 21.56 7.81326 21.1733 7.42659L16.7066 2.95992C16.32 2.57326 15.68 2.57326 15.2933 2.95992L10.8266 7.42659C10.44 7.81326 10.44 8.45326 10.8266 8.83992C11.2133 9.22659 11.8533 9.22659 12.24 8.83992L15 6.07992V11.9999H17V6.07992Z" fill="#99A0AD"/>
</svg>
